<svg width="100%" viewBox="0 0 680 380" xmlns="http://www.w3.org/2000/svg" style="background:#fff">
<defs>
  <marker id="arrow" viewBox="0 0 10 10" refX="8" refY="5" markerWidth="6" markerHeight="6" orient="auto-start-reverse">
    <path d="M2 1L8 5L2 9" fill="none" stroke="context-stroke" stroke-width="1.5" stroke-linecap="round" stroke-linejoin="round"/>
  </marker>
</defs>
<style>
text{font-family:'Pretendard','Apple SD Gothic Neo','Malgun Gothic',sans-serif}
.th{font-size:14px;font-weight:500;fill:#1a1a1a}
.ts{font-size:12px;fill:#666}
.leader{stroke:#aaa;stroke-width:0.5;stroke-dasharray:3 2}
</style>

<text class="th" x="340" y="30" text-anchor="middle">측면도 (Side view) — X축 방향에서 본 단면</text>

<rect x="105" y="55" width="24" height="210" rx="2" fill="#999" opacity="0.18" stroke="#999" stroke-width="0.8"/>
<rect x="451" y="55" width="24" height="210" rx="2" fill="#999" opacity="0.18" stroke="#999" stroke-width="0.8"/>
<rect x="105" y="245" width="370" height="20" rx="2" fill="#999" opacity="0.18" stroke="#999" stroke-width="0.8"/>

<rect x="129" y="55" width="322" height="18" rx="2" fill="#1D9E75" opacity="0.3" stroke="#0F6E56" stroke-width="0.8"/>

<rect x="260" y="73" width="60" height="8" rx="1" fill="#D4537E" opacity="0.3" stroke="#993556" stroke-width="0.5"/>
<rect x="285" y="81" width="10" height="80" rx="1" fill="#999" opacity="0.15" stroke="#999" stroke-width="0.5"/>

<rect x="272" y="158" width="36" height="46" rx="3" fill="#F5C4B3" stroke="#993C1D" stroke-width="0.8"/>
<text class="ts" x="290" y="185" text-anchor="middle" fill="#712B13">SOL</text>

<rect x="286" y="204" width="8" height="16" rx="1" fill="#993C1D" opacity="0.8"/>
<circle cx="290" cy="224" r="3.5" fill="#993C1D"/>

<rect x="160" y="231" width="260" height="4" rx="0" fill="#fff" stroke="#999" stroke-width="0.5"/>
<path d="M285 235 Q290 243 295 235" fill="none" stroke="#993556" stroke-width="1.2"/>

<rect x="155" y="235" width="270" height="10" rx="2" fill="#5DCAA5" opacity="0.35" stroke="#0F6E56" stroke-width="0.5"/>

<rect x="147" y="225" width="18" height="24" rx="2" fill="#999" opacity="0.2" stroke="#999" stroke-width="0.5"/>
<rect x="415" y="225" width="18" height="24" rx="2" fill="#999" opacity="0.2" stroke="#999" stroke-width="0.5"/>

<line x1="316" y1="204" x2="316" y2="228" stroke="#993C1D" stroke-width="0.5"/>
<line x1="312" y1="204" x2="320" y2="204" stroke="#993C1D" stroke-width="0.5"/>
<line x1="312" y1="228" x2="320" y2="228" stroke="#993C1D" stroke-width="0.5"/>
<text class="ts" x="326" y="220" fill="#993C1D">4~6mm</text>

<line x1="70" y1="55" x2="70" y2="265" stroke="#aaa" stroke-width="0.5"/>
<line x1="65" y1="55" x2="75" y2="55" stroke="#aaa" stroke-width="0.5"/>
<line x1="65" y1="265" x2="75" y2="265" stroke="#aaa" stroke-width="0.5"/>
<text class="ts" x="62" y="165" text-anchor="middle" transform="rotate(-90,62,165)">~120mm</text>

<line class="leader" x1="308" y1="180" x2="530" y2="80"/><circle cx="308" cy="180" r="2" fill="#888"/>
<text class="ts" x="535" y="78">솔레노이드 (12V)</text>

<line class="leader" x1="294" y1="224" x2="530" y2="130"/><circle cx="294" cy="224" r="2" fill="#888"/>
<text class="ts" x="535" y="128">엠보싱 핀 (φ1.5mm)</text>

<line class="leader" x1="390" y1="64" x2="530" y2="180"/><circle cx="390" cy="64" r="2" fill="#888"/>
<text class="ts" x="535" y="178">갠트리 빔</text>

<line class="leader" x1="350" y1="233" x2="530" y2="235"/><circle cx="350" cy="233" r="2" fill="#888"/>
<text class="ts" x="535" y="233">용지 (120g/m2+)</text>

<line class="leader" x1="350" y1="240" x2="530" y2="275"/><circle cx="350" cy="240" r="2" fill="#888"/>
<text class="ts" x="535" y="273">실리콘 패드</text>

<line class="leader" x1="156" y1="235" x2="530" y2="315"/><circle cx="156" cy="235" r="2" fill="#888"/>
<text class="ts" x="535" y="313">용지 클램프</text>

<line class="leader" x1="290" y1="243" x2="530" y2="350"/><circle cx="290" cy="243" r="2" fill="#888"/>
<text class="ts" x="535" y="348">엠보싱 dot (하방 돌출)</text>
</svg>