<svg width="100%" viewBox="0 0 680 560" xmlns="http://www.w3.org/2000/svg" style="background:#fff">
<defs>
  <marker id="arrow" viewBox="0 0 10 10" refX="8" refY="5" markerWidth="6" markerHeight="6" orient="auto-start-reverse">
    <path d="M2 1L8 5L2 9" fill="none" stroke="context-stroke" stroke-width="1.5" stroke-linecap="round" stroke-linejoin="round"/>
  </marker>
</defs>
<style>
text{font-family:'Pretendard','Apple SD Gothic Neo','Malgun Gothic',sans-serif}
.th{font-size:14px;font-weight:500;fill:#1a1a1a}
.ts{font-size:12px;fill:#666}
.leader{stroke:#aaa;stroke-width:0.5;stroke-dasharray:3 2}
</style>

<text class="th" x="340" y="30" text-anchor="middle">상면도 (Top view) — 혼합 구조</text>

<rect x="80" y="50" width="440" height="380" rx="2" fill="none" stroke="#999" stroke-width="2.5"/>
<rect x="80" y="50" width="440" height="12" rx="1" fill="#999" opacity="0.15"/>
<rect x="80" y="418" width="440" height="12" rx="1" fill="#999" opacity="0.15"/>
<rect x="80" y="50" width="12" height="380" rx="1" fill="#999" opacity="0.15"/>
<rect x="508" y="50" width="12" height="380" rx="1" fill="#999" opacity="0.15"/>

<line x1="118" y1="62" x2="118" y2="418" stroke="#534AB7" stroke-width="3" stroke-linecap="round"/>
<line x1="490" y1="62" x2="490" y2="418" stroke="#999" stroke-width="2" stroke-dasharray="4 3"/>
<rect x="105" y="44" width="26" height="26" rx="3" fill="#7F77DD" opacity="0.7" stroke="#534AB7" stroke-width="0.5"/>

<rect x="112" y="235" width="384" height="14" rx="2" fill="#1D9E75" opacity="0.25" stroke="#0F6E56" stroke-width="0.8"/>
<line x1="145" y1="242" x2="485" y2="242" stroke="#D85A30" stroke-width="2" stroke-dasharray="6 3"/>
<rect x="126" y="230" width="22" height="24" rx="3" fill="#F0997B" opacity="0.7" stroke="#993C1D" stroke-width="0.5"/>
<circle cx="488" cy="242" r="5" fill="none" stroke="#993C1D" stroke-width="1"/>

<rect x="310" y="228" width="30" height="28" rx="4" fill="#D4537E" opacity="0.45" stroke="#993556" stroke-width="0.8"/>
<circle cx="325" cy="242" r="4" fill="#993556" opacity="0.9"/>

<rect x="160" y="100" width="280" height="280" rx="2" fill="#fff" opacity="0.5" stroke="#bbb" stroke-width="0.5" stroke-dasharray="5 3"/>
<text class="ts" x="300" y="245" text-anchor="middle" opacity="0.4">A4 용지 영역</text>
<text class="ts" x="300" y="261" text-anchor="middle" opacity="0.4">210 x 297mm</text>

<line class="leader" x1="118" y1="320" x2="555" y2="440"/><circle cx="118" cy="320" r="2" fill="#888"/>
<text class="ts" x="560" y="438">Y축 볼스크류</text>
<text class="ts" x="560" y="452">(SFU1204)</text>

<line class="leader" x1="490" y1="160" x2="555" y2="160"/><circle cx="490" cy="160" r="2" fill="#888"/>
<text class="ts" x="560" y="158">리니어 레일</text>
<text class="ts" x="560" y="172">(MGN12, Y가이드)</text>

<line class="leader" x1="340" y1="230" x2="555" y2="250"/><circle cx="340" cy="230" r="2" fill="#888"/>
<text class="ts" x="560" y="248">캐리지</text>
<text class="ts" x="560" y="262">(솔레노이드+핀)</text>

<line class="leader" x1="380" y1="248" x2="555" y2="310"/><circle cx="380" cy="248" r="2" fill="#888"/>
<text class="ts" x="560" y="308">X축 GT2 벨트</text>

<line class="leader" x1="300" y1="235" x2="555" y2="350"/><circle cx="300" cy="235" r="2" fill="#888"/>
<text class="ts" x="560" y="348">갠트리 빔</text>
<text class="ts" x="560" y="362">(2020 프로파일)</text>

<line x1="50" y1="470" x2="50" y2="500" stroke="#534AB7" stroke-width="1.5" marker-end="url(#arrow)"/>
<line x1="50" y1="500" x2="50" y2="530" stroke="#534AB7" stroke-width="1.5" marker-end="url(#arrow)" transform="rotate(180,50,515)"/>
<text class="ts" x="40" y="510" text-anchor="end" fill="#534AB7">Y</text>
<line x1="65" y1="530" x2="95" y2="530" stroke="#D85A30" stroke-width="1.5" marker-end="url(#arrow)"/>
<line x1="95" y1="530" x2="125" y2="530" stroke="#D85A30" stroke-width="1.5" marker-end="url(#arrow)" transform="rotate(180,110,530)"/>
<text class="ts" x="95" y="548" text-anchor="middle" fill="#D85A30">X</text>

<rect x="160" y="478" width="14" height="4" rx="1" fill="#534AB7"/>
<text class="ts" x="180" y="484">Y축 볼스크류 (SFU1204)</text>
<rect x="160" y="498" width="14" height="4" rx="1" fill="#D85A30"/>
<text class="ts" x="180" y="504">X축 GT2 타이밍 벨트</text>
<rect x="380" y="478" width="12" height="12" rx="2" fill="#7F77DD" opacity="0.7"/>
<text class="ts" x="398" y="488">NEMA 17 모터 (x2)</text>
<rect x="380" y="498" width="12" height="12" rx="2" fill="#D4537E" opacity="0.45"/>
<text class="ts" x="398" y="508">캐리지 (솔레노이드)</text>
</svg>