<svg width="100%" viewBox="0 0 680 560" xmlns="http://www.w3.org/2000/svg" style="background:#fff">
<defs>
  <marker id="arrow" viewBox="0 0 10 10" refX="8" refY="5" markerWidth="6" markerHeight="6" orient="auto-start-reverse">
    <path d="M2 1L8 5L2 9" fill="none" stroke="context-stroke" stroke-width="1.5" stroke-linecap="round" stroke-linejoin="round"/>
  </marker>
</defs>
<style>
text{font-family:'Pretendard','Apple SD Gothic Neo','Malgun Gothic',sans-serif}
.th{font-size:14px;font-weight:500;fill:#1a1a1a}
.ts{font-size:12px;fill:#666}
</style>

<rect x="140" y="30" width="400" height="70" rx="12" fill="#E6F1FB" stroke="#85B7EB" stroke-width="0.5"/>
<text class="th" x="340" y="55" text-anchor="middle" dominant-baseline="central">PC / HMI</text>
<text class="ts" x="340" y="75" text-anchor="middle" dominant-baseline="central">텍스트 입력 → 점자 변환 → 좌표 생성 → 시리얼 전송</text>

<line x1="340" y1="100" x2="340" y2="140" stroke="#888" stroke-width="1.5" marker-end="url(#arrow)"/>
<text class="ts" x="355" y="125" text-anchor="start">USB Serial</text>

<rect x="140" y="140" width="400" height="70" rx="12" fill="#E1F5EE" stroke="#5DCAA5" stroke-width="0.5"/>
<text class="th" x="340" y="165" text-anchor="middle" dominant-baseline="central">Arduino Mega + RAMPS 1.4</text>
<text class="ts" x="340" y="185" text-anchor="middle" dominant-baseline="central">G-code 해석, 모터/솔레노이드 제어</text>

<path d="M220 210 L220 250 L140 250 L140 280" fill="none" stroke="#888" stroke-width="1.5" marker-end="url(#arrow)"/>
<path d="M340 210 L340 280" fill="none" stroke="#888" stroke-width="1.5" marker-end="url(#arrow)"/>
<path d="M460 210 L460 250 L545 250 L545 280" fill="none" stroke="#888" stroke-width="1.5" marker-end="url(#arrow)"/>

<rect x="50" y="280" width="180" height="56" rx="8" fill="#EEEDFE" stroke="#AFA9EC" stroke-width="0.5"/>
<text class="th" x="140" y="300" text-anchor="middle" dominant-baseline="central">X축 스테퍼 모터</text>
<text class="ts" x="140" y="318" text-anchor="middle" dominant-baseline="central">NEMA 17 + GT2 벨트</text>

<rect x="250" y="280" width="180" height="56" rx="8" fill="#EEEDFE" stroke="#AFA9EC" stroke-width="0.5"/>
<text class="th" x="340" y="300" text-anchor="middle" dominant-baseline="central">Y축 스테퍼 모터</text>
<text class="ts" x="340" y="318" text-anchor="middle" dominant-baseline="central">NEMA 17 + SFU1204</text>

<rect x="450" y="280" width="180" height="56" rx="8" fill="#FAECE7" stroke="#F0997B" stroke-width="0.5"/>
<text class="th" x="540" y="300" text-anchor="middle" dominant-baseline="central">솔레노이드</text>
<text class="ts" x="540" y="318" text-anchor="middle" dominant-baseline="central">12V Push-Pull</text>

<line x1="140" y1="336" x2="140" y2="400" stroke="#888" stroke-width="1.5" marker-end="url(#arrow)"/>
<line x1="340" y1="336" x2="340" y2="400" stroke="#888" stroke-width="1.5" marker-end="url(#arrow)"/>
<line x1="540" y1="336" x2="540" y2="400" stroke="#888" stroke-width="1.5" marker-end="url(#arrow)"/>

<rect x="50" y="400" width="580" height="130" rx="16" fill="#F1EFE8" stroke="#B4B2A9" stroke-width="0.5"/>
<text class="th" x="340" y="428" text-anchor="middle" dominant-baseline="central">기구부</text>

<rect x="75" y="450" width="155" height="44" rx="8" fill="#FAEEDA" stroke="#EF9F27" stroke-width="0.5"/>
<text class="ts" x="152" y="472" text-anchor="middle" dominant-baseline="central" fill="#633806">프로파일 프레임</text>

<rect x="255" y="450" width="180" height="44" rx="8" fill="#FAEEDA" stroke="#EF9F27" stroke-width="0.5"/>
<text class="ts" x="345" y="472" text-anchor="middle" dominant-baseline="central" fill="#633806">갠트리 빔 + 캐리지</text>

<rect x="460" y="450" width="150" height="44" rx="8" fill="#FAEEDA" stroke="#EF9F27" stroke-width="0.5"/>
<text class="ts" x="535" y="472" text-anchor="middle" dominant-baseline="central" fill="#633806">받침대 + 용지</text>
</svg>